<?xml version="1.0" standalone="no"?>
<!DOCTYPE svg PUBLIC "-//W3C//DTD SVG 20010904//EN"
 "http://www.w3.org/TR/2001/REC-SVG-20010904/DTD/svg10.dtd">
<svg version="1.0" xmlns="http://www.w3.org/2000/svg"
 width="512.000000pt" height="512.000000pt" viewBox="0 0 512.000000 512.000000"
 preserveAspectRatio="xMidYMid meet">
<metadata>
Created by potrace 1.14, written by Peter Selinger 2001-2017
</metadata>
<g transform="translate(0.000000,512.000000) scale(0.100000,-0.100000)"
fill="#000000" stroke="none">
<path d="M2437 4004 c-1 -1 -63 -4 -137 -8 -74 -4 -148 -9 -165 -11 -16 -2
-57 -6 -90 -10 -80 -7 -305 -43 -380 -60 -33 -8 -71 -16 -85 -19 -38 -7 -165
-42 -260 -71 -47 -15 -89 -28 -95 -29 -13 -4 -43 -15 -80 -31 -16 -7 -63 -25
-103 -40 -94 -35 -300 -140 -391 -199 -72 -46 -89 -72 -78 -118 5 -18 -3 -30
-36 -55 -23 -18 -57 -46 -76 -63 -35 -31 -46 -36 -55 -22 -2 4 -19 9 -36 10
-27 2 -40 -6 -82 -50 -189 -199 -289 -442 -283 -687 3 -148 27 -244 97 -386
193 -393 701 -726 1388 -909 52 -14 111 -28 130 -31 19 -3 42 -8 50 -10 8 -2
31 -7 50 -10 19 -3 53 -10 75 -15 22 -5 63 -12 90 -15 28 -3 59 -7 70 -9 11
-2 49 -7 85 -11 36 -3 79 -8 95 -10 240 -30 823 -19 1023 20 11 2 42 6 69 10
202 28 449 87 646 154 404 138 703 313 927 541 168 170 267 349 305 545 15 82
13 268 -5 340 -46 190 -150 366 -309 526 -84 83 -262 224 -325 256 -17 8 -38
21 -46 28 -23 20 -265 140 -355 175 -217 87 -454 157 -662 195 -16 3 -39 7
-53 10 -14 3 -41 8 -60 11 -19 2 -62 9 -95 14 -33 5 -87 12 -120 15 -33 4 -74
8 -91 10 -98 11 -537 27 -547 19z"/>
</g>
</svg>
