<svg xmlns="http://www.w3.org/2000/svg" version="1.1" xmlns:xlink="http://www.w3.org/1999/xlink" xmlns:svgjs="http://svgjs.dev/svgjs" style="overflow: hidden; height: 85vh;" viewBox="0 0 926 428" class="overflow-hidden rounded-md drop-shadow-lg transition duration-300"><rect width="926" height="428" fill="#8f8ca3"/><g clip-path="url(&quot;#SvgjsClipPath3692&quot;)"><g transform="matrix(-0.08021994480574442,-1.1471986577987978,1.1471986577987978,-0.08021994480574442,241.61185881116933,748.4826959556849)"><path d="M0,-428C5.389319560782165,-391.50431349509205,36.24886220408973,-265.4494878450899,32.33591736469299,-209.02588097055224C28.42297252529625,-152.6022740960146,-18.279614520637406,-143.9043779793779,-23.477669036380448,-89.45835875277417C-28.67572355212349,-35.01233952617044,-0.8612241159933451,46.75790995135664,1.147590270234744,117.65023438907016C3.156404656462833,188.5425588267837,-8.237342547086685,274.1427164019386,-11.424782719011912,335.895587873507C-14.612222890937138,397.64845934507537,-24.846972797178736,429.3254486219366,-17.977050761316615,488.1674632184805C-11.107128725454494,547.0094778150244,26.798574369274718,627.6422526558506,29.79474949616082,688.9476754527706C32.79092462304692,750.2530982496905,4.96579158269347,828.1579459087951,0,856L 926 856 L 926 -428 Z" fill="url(&quot;#SvgjsLinearGradient3683&quot;)"/><path d="M102.88888888888889,-428C101.29461256709125,-394.77551167975474,97.73008435610305,-297.2967691247045,93.32323095810305,-228.65307007852846C88.91637756010306,-160.0093710323524,78.7723168739117,-84.93447543052055,76.44776850088891,-16.13780572294362C74.12322012786612,52.6588639846333,77.38591019757527,110.54916155097729,79.37594071996628,184.12694816693312C81.36597124235729,257.704734782889,88.8816266419432,348.9242760526711,88.38795163523498,425.3289139727914C87.89427662852677,501.7335518929117,73.99706780410803,570.7762613497866,76.41389067971701,642.5547756876548C78.830713555326,714.333290025523,98.47638918736024,820.4257959479424,102.88888888888889,856L 926 856 L 926 -428 Z" fill="url(&quot;#SvgjsLinearGradient3684&quot;)"/><path d="M205.77777777777777,-428C207.2961827140582,-396.099556592684,209.75746532191548,-298.75218741804485,214.8882073954603,-236.59733955610383C220.01894946900515,-174.4424916941628,237.0647730639254,-110.84890559132747,236.56223021904674,-55.07091282835395C236.05968737416808,0.7070799346195713,220.57501179491808,38.03298020790786,211.8729503261884,98.07061702173729C203.17088885745872,158.10825383556673,184.07572063754836,236.1210450605076,184.34986140666865,305.15490805462264C184.62400217578895,374.18877104873764,213.64280264640354,452.5825348007074,213.5177949409101,512.2737949864274C213.39278723541668,571.9650551721476,184.88981803423005,606.0147683333478,183.59981517370798,663.3024691689432C182.30981231318592,720.5901700045385,202.08145067709947,823.8837448614905,205.77777777777777,856L 926 856 L 926 -428 Z" fill="url(&quot;#SvgjsLinearGradient3685&quot;)"/><path d="M308.66666666666663,-428C304.82294137537093,-394.15917257739085,280.76310396370565,-294.1903281372978,285.60431491889244,-224.9550354643452C290.44552587407924,-155.7197427913926,328.6759274946944,-85.25545321021434,337.71393239778735,-12.588243962284533C346.7519373008803,60.07896528564527,341.0746014952883,133.4960123417503,339.83234433745,211.04822002323365C338.59008717961177,288.60042770471705,340.94036291797545,377.06590023503804,330.26038945075794,452.72500212661566C319.58041598354043,528.3841040181933,279.35145733149363,597.7903317271353,275.7525035341451,665.0028313726993C272.15354973679655,732.2153310182634,303.18097281124636,824.1671385621165,308.66666666666663,856L 926 856 L 926 -428 Z" fill="url(&quot;#SvgjsLinearGradient3686&quot;)"/><path d="M411.55555555555554,-428C416.11166628978947,-397.5589525953493,443.39798337492374,-311.77045601397117,438.892219960959,-245.3537155720957C434.3864565469942,-178.93697513022022,384.1718479760456,-95.36402989933127,384.52097507176694,-29.499557348747246C384.87010216748826,36.36491520183678,431.54548359104837,99.44601100243875,440.98698253528687,149.8331197314085C450.4284814795254,200.22022846037822,450.81273385380496,220.40836448044402,441.1699687371979,272.8230950250711C431.52720362059085,325.2378255696982,384.06173184270864,394.47738120054015,383.13039183564445,464.321502999171C382.19905182858025,534.1656247978019,430.8444014081608,626.6080763167181,435.5819286948127,691.8878258168563C440.31945598146456,757.1675753169945,415.55995107876504,828.6479709694761,411.55555555555554,856L 926 856 L 926 -428 Z" fill="url(&quot;#SvgjsLinearGradient3687&quot;)"/><path d="M514.4444444444445,-428C519.022491359683,-380.02116951681154,541.5161973797966,-229.0581283354843,541.912725935876,-140.1270171008693C542.3092544919554,-51.19590586625429,521.5752776553524,23.024682469734813,516.8236157809209,105.58666740769004C512.0719539064895,188.14865234564527,511.46653112775783,272.3528073151379,513.4027546892873,355.2448925268621C515.3389782508169,438.13697773858627,528.2673421909053,519.4799940991787,528.4409571500981,602.9391786780351C528.614572109291,686.3983632568915,516.7771965620534,813.8231964463391,514.4444444444445,856L 926 856 L 926 -428 Z" fill="url(&quot;#SvgjsLinearGradient3688&quot;)"/><path d="M617.3333333333333,-428C614.0474429900029,-395.3149702556391,595.4227261924318,-302.93903452423774,597.6179912733509,-231.8898215338344C599.8132563542699,-160.84060854343107,621.3052223816087,-70.67616212846468,630.5049238188473,-1.7047220575798718C639.7046252560858,67.26671801330494,652.9373165603644,104.38242358962579,652.816199896782,181.93881889147448C652.6950832331996,259.4952141933232,630.7180343973694,392.6269438471615,629.778223837353,463.63364975351226C628.8384132773367,534.640355659863,649.251484954021,542.5846626218311,647.1773365366844,607.9790543295791C645.1031881193478,673.3734460373271,622.3073338672251,814.6631757215965,617.3333333333333,856L 926 856 L 926 -428 Z" fill="url(&quot;#SvgjsLinearGradient3689&quot;)"/><path d="M720.2222222222223,-428C721.2448772336676,-392.61188976053734,724.0722038383851,-276.392273394125,726.358152290894,-215.67133856322403C728.644100743403,-154.950403732323,741.0829539069218,-116.44191493535422,733.9379129372758,-63.67439101459388C726.7928719676297,-10.90686709383354,691.6220531071916,44.60040420198661,683.4879064730178,100.93380496133803C675.353759838844,157.26720572068945,682.096506853904,208.0362585880145,685.1330331322329,274.3260135415146C688.1695594105618,340.6157684950147,693.555463976653,432.515262604109,701.7070641429915,498.6723346823386C709.85866430933,564.8294067605682,730.9567744503923,611.7138351246153,734.0426341302641,671.2684460108923C737.1284938101359,730.8230568971692,722.5256242068959,825.211407668482,720.2222222222223,856L 926 856 L 926 -428 Z" fill="url(&quot;#SvgjsLinearGradient3690&quot;)"/><path d="M823.1111111111111,-428C827.2003718711254,-396.98151688591486,845.2522669595819,-303.8297102475541,847.6466756711969,-241.88910131548903C850.041084382812,-179.94849238342397,839.2370559397739,-113.76603970253285,837.4775633808013,-56.356346407609635C835.7180708218286,1.0533468873135874,834.7954885753002,36.45254396507079,837.0897203173613,102.5690584540503C839.3839520594224,168.68557294302983,852.0741224147397,279.00925245582323,851.242953833168,340.34274052626745C850.4117852515964,401.67622859671167,830.6525339764862,417.7916482709448,832.1027088279316,470.56998687671563C833.5528836793769,523.3483254824864,861.4426025613104,592.7744366403451,859.9440029418404,657.0127721608925C858.4454033223703,721.2511076814399,829.2499264162326,822.8354620268154,823.1111111111111,856L 926 856 L 926 -428 Z" fill="url(&quot;#SvgjsLinearGradient3691&quot;)"/></g></g><defs><linearGradient x1="0.1" y1="0" x2="0" y2="1" id="SvgjsLinearGradient3683"><stop stop-color="#8f8ca3" offset="0"/><stop stop-color="#8c8da3" offset="0"/></linearGradient><linearGradient x1="0.1" y1="0" x2="0" y2="1" id="SvgjsLinearGradient3684"><stop stop-color="#9c9aae" offset="0"/><stop stop-color="#9a9bae" offset="0.1111111111111111"/></linearGradient><linearGradient x1="0.1" y1="0" x2="0" y2="1" id="SvgjsLinearGradient3685"><stop stop-color="#aaa8b9" offset="0"/><stop stop-color="#a8a9b9" offset="0.2222222222222222"/></linearGradient><linearGradient x1="0.1" y1="0" x2="0" y2="1" id="SvgjsLinearGradient3686"><stop stop-color="#b7b5c4" offset="0"/><stop stop-color="#b5b6c4" offset="0.3333333333333333"/></linearGradient><linearGradient x1="0.1" y1="0" x2="0" y2="1" id="SvgjsLinearGradient3687"><stop stop-color="#c5c3cf" offset="0"/><stop stop-color="#c3c3cf" offset="0.4444444444444444"/></linearGradient><linearGradient x1="0.1" y1="0" x2="0" y2="1" id="SvgjsLinearGradient3688"><stop stop-color="#d2d1da" offset="0"/><stop stop-color="#d1d1da" offset="0.5555555555555556"/></linearGradient><linearGradient x1="0.1" y1="0" x2="0" y2="1" id="SvgjsLinearGradient3689"><stop stop-color="#dfdfe5" offset="0"/><stop stop-color="#dfe0e5" offset="0.6666666666666666"/></linearGradient><linearGradient x1="0.1" y1="0" x2="0" y2="1" id="SvgjsLinearGradient3690"><stop stop-color="#edecf0" offset="0"/><stop stop-color="#ececf0" offset="0.7777777777777778"/></linearGradient><linearGradient x1="0.1" y1="0" x2="0" y2="1" id="SvgjsLinearGradient3691"><stop stop-color="#fafafb" offset="0"/><stop stop-color="#fafafb" offset="0.8888888888888888"/></linearGradient><clipPath id="SvgjsClipPath3692"><rect width="926" height="428"/></clipPath></defs></svg>