<svg xmlns="http://www.w3.org/2000/svg" version="1.1" xmlns:xlink="http://www.w3.org/1999/xlink" xmlns:svgjs="http://svgjs.dev/svgjs" style="overflow: hidden; height: 85vh;" viewBox="0 0 926 428" class="overflow-hidden rounded-md drop-shadow-lg transition duration-300"><rect width="926" height="428" fill="#8f8ca3"/><g clip-path="url(&quot;#SvgjsClipPath3712&quot;)"><g transform="matrix(-0.7392057511395204,-0.8809511095868245,0.8809511095868245,-0.7392057511395204,592.3633413832988,767.7287195508917)"><path d="M0,-428C-4.667950957474958,-371.8813748162098,-28.612932894830323,-197.18546361019827,-28.007705744849748,-91.2882488972588C-27.402478594869173,14.608965815680662,-1.9077350375336168,107.84293875011774,3.631362899883456,207.38328827763675C9.170460837300528,306.92363780515575,5.83210902963327,397.85106298079467,5.226881879652694,505.9538482678552C4.621654729672119,614.0566335549157,0.8711469799421158,797.6589747113092,0,856L 926 856 L 926 -428 Z" fill="url(&quot;#SvgjsLinearGradient3703&quot;)"/><path d="M102.88888888888889,-428C103.89119115041224,-395.10418638437926,103.6322551816229,-301.16700471644003,108.90270245802904,-230.62511830627543C114.17314973443519,-160.08323189611082,138.40513018408743,-76.98710369151192,134.51157254732573,-4.7486815390124875C130.61801491056403,67.48974061348696,86.72932582780345,128.4485752628579,85.54135663745888,202.80541460872126C84.3533874471143,277.1622539545846,122.60697845207406,369.7061031105575,127.38375740525825,441.39235453616766C132.16053635844244,513.0786059617778,118.28450844262561,563.8216489184102,114.20203035656405,632.9229231623823C110.1195522705025,702.0241974063543,104.77441246683475,818.8204871937304,102.88888888888889,856L 926 856 L 926 -428 Z" fill="url(&quot;#SvgjsLinearGradient3704&quot;)"/><path d="M205.77777777777777,-428C208.8682305113743,-391.4072704922986,225.78978573308413,-277.4824039100165,224.3204941793568,-208.44362295379167C222.8512026256295,-139.40484199756688,202.0294295543943,-85.36594042844828,196.96202845541387,-13.767314262651233C191.89462735643343,57.83131190314581,198.2263604383132,143.63898601618843,193.91608758547426,221.14813404099058C189.6058147326353,298.65728206579274,172.9234036479102,381.85593929181846,171.1003913383802,451.28757388616174C169.27737902885022,520.719208480505,177.19844932172805,570.2858705880773,182.97801372829431,637.7379416070503C188.75757813486058,705.1900126260233,201.97781710286387,819.6229902678417,205.77777777777777,856L 926 856 L 926 -428 Z" fill="url(&quot;#SvgjsLinearGradient3705&quot;)"/><path d="M308.66666666666663,-428C303.1270984342481,-401.2134205960138,278.66235199899546,-325.0960576346995,275.4292572721556,-267.28052357608294C272.19616254531576,-209.46498951746636,279.5663709851486,-151.09831837464478,289.26809830562763,-81.10679564830055C298.9698256261067,-11.115272921956318,336.18730671301176,83.56330431667564,333.6396211950299,152.66861278198246C331.09193567704807,221.77392124728928,280.17554414395056,280.6678617432159,273.9819851977365,333.5250551435404C267.7884262515224,386.3822485438649,296.0288190056846,413.41251728894747,296.47826751774545,469.8117731839296C296.9277160298063,526.2110290789117,274.64727641194804,607.555886044088,276.67867627010156,671.920590513433C278.7100761282551,736.285294982778,303.33533493390576,825.3200984189054,308.66666666666663,856L 926 856 L 926 -428 Z" fill="url(&quot;#SvgjsLinearGradient3706&quot;)"/><path d="M411.55555555555554,-428C410.41193595678664,-380.6997318886488,409.96437298378646,-234.616497074057,404.69383796294204,-144.1983913318927C399.4233029420976,-53.78028558972842,379.27255867915767,28.626629494857028,379.9323454304891,114.50863445298566C380.5921321818205,200.3906394111143,397.9588274791292,287.5372120914687,408.65255847093044,371.0936384168791C419.3462894627317,454.65006474228954,443.6108985338591,535.029465474928,444.0947313812966,615.8471924054481C444.5785642287341,696.6649193359683,416.9787515265124,815.9745320675747,411.55555555555554,856L 926 856 L 926 -428 Z" fill="url(&quot;#SvgjsLinearGradient3707&quot;)"/><path d="M514.4444444444445,-428C516.7896349555108,-404.52867541054223,530.3043498349439,-343.19740279298344,528.5155875108425,-287.1720524632535C526.726825186741,-231.1467021335236,508.7208076719077,-145.88979129348604,503.71187049983564,-91.84789802162045C498.70293332776356,-37.80600474975485,491.0200644265604,-11.31150809299465,498.46196447840987,37.07930716794013C505.90386453025934,85.4701224288749,542.2418232102523,147.13530271333508,548.3632708109324,198.49699354398822C554.4847184116124,249.85868437464137,544.9385567723493,287.94276630803483,535.19065008249,345.2494521518589C525.4427433926307,402.556137995683,488.74309932999233,483.09409175629554,489.8758306717766,542.3371086069328C491.0085620135609,601.5801254575701,537.8922691710845,648.4304046901715,541.9870381331958,700.7075532556827C546.0818070953071,752.9847018211939,519.034876725903,830.1179255426138,514.4444444444445,856L 926 856 L 926 -428 Z" fill="url(&quot;#SvgjsLinearGradient3708&quot;)"/><path d="M617.3333333333333,-428C619.0405460713959,-390.58360388973153,633.3736270807826,-285.4404400406561,627.576609761709,-203.50162333838904C621.7795924426355,-121.56280663612198,579.0589115768053,-26.440831270272128,582.5512294188919,63.632900213602326C586.0435472609786,153.70663169747678,644.3502816828169,247.88363117475797,648.5305168142289,336.9407655648577C652.7107519456409,425.99789995495746,612.8321707875135,511.46583414834373,607.6326402073643,597.9757065542008C602.433109627215,684.4855789600579,615.7165511456717,812.9959510923668,617.3333333333333,856L 926 856 L 926 -428 Z" fill="url(&quot;#SvgjsLinearGradient3709&quot;)"/><path d="M720.2222222222223,-428C715.8167907561675,-394.39213583020205,694.4844237271315,-291.05780656612,693.7896334258934,-226.35281498121248C693.0948431246553,-161.64782339630494,710.2104578881468,-97.35348964338093,716.0534804147937,-39.77005049055495C721.8965029414406,17.81338866227103,724.4911434857287,66.11267967914407,728.8477685857748,119.14781993574343C733.204393685821,172.1829601923428,746.3633416627559,215.6915091593328,742.1932310150708,278.44079104904125C738.0231203673856,341.19007293874967,704.2855805192355,432.0006017508062,703.8271046996638,495.643511273994C703.368628880092,559.2864207971818,736.7098565105474,600.2388334005004,739.4423760976405,660.2982481881681C742.1748956847335,720.3576629758359,723.4255812014586,823.3830413646947,720.2222222222223,856L 926 856 L 926 -428 Z" fill="url(&quot;#SvgjsLinearGradient3710&quot;)"/><path d="M823.1111111111111,-428C823.007955649661,-386.2614748111676,827.5941731890192,-263.1225626765384,822.4921783424105,-177.56884886700567C817.3901834958018,-92.01513505747295,786.3554141683244,0.4132576853751715,792.4991420314586,85.32228285719634C798.6428698945929,170.2313080290175,856.4377426729576,248.3544828151936,859.3545455212163,331.8853021639213C862.271348369475,415.41612151264906,816.0405315226952,499.1547493102164,809.999959121011,586.5071989495628C803.9593867193267,673.8596485889093,820.9259191127611,811.0845331582605,823.1111111111111,856L 926 856 L 926 -428 Z" fill="url(&quot;#SvgjsLinearGradient3711&quot;)"/></g></g><defs><linearGradient x1="0.1" y1="0" x2="0" y2="1" id="SvgjsLinearGradient3703"><stop stop-color="#8f8ca3" offset="0"/><stop stop-color="#8c8da3" offset="0"/></linearGradient><linearGradient x1="0.1" y1="0" x2="0" y2="1" id="SvgjsLinearGradient3704"><stop stop-color="#9c9aae" offset="0"/><stop stop-color="#9a9bae" offset="0.1111111111111111"/></linearGradient><linearGradient x1="0.1" y1="0" x2="0" y2="1" id="SvgjsLinearGradient3705"><stop stop-color="#aaa8b9" offset="0"/><stop stop-color="#a8a9b9" offset="0.2222222222222222"/></linearGradient><linearGradient x1="0.1" y1="0" x2="0" y2="1" id="SvgjsLinearGradient3706"><stop stop-color="#b7b5c4" offset="0"/><stop stop-color="#b5b6c4" offset="0.3333333333333333"/></linearGradient><linearGradient x1="0.1" y1="0" x2="0" y2="1" id="SvgjsLinearGradient3707"><stop stop-color="#c5c3cf" offset="0"/><stop stop-color="#c3c3cf" offset="0.4444444444444444"/></linearGradient><linearGradient x1="0.1" y1="0" x2="0" y2="1" id="SvgjsLinearGradient3708"><stop stop-color="#d2d1da" offset="0"/><stop stop-color="#d1d1da" offset="0.5555555555555556"/></linearGradient><linearGradient x1="0.1" y1="0" x2="0" y2="1" id="SvgjsLinearGradient3709"><stop stop-color="#dfdfe5" offset="0"/><stop stop-color="#dfe0e5" offset="0.6666666666666666"/></linearGradient><linearGradient x1="0.1" y1="0" x2="0" y2="1" id="SvgjsLinearGradient3710"><stop stop-color="#edecf0" offset="0"/><stop stop-color="#ececf0" offset="0.7777777777777778"/></linearGradient><linearGradient x1="0.1" y1="0" x2="0" y2="1" id="SvgjsLinearGradient3711"><stop stop-color="#fafafb" offset="0"/><stop stop-color="#fafafb" offset="0.8888888888888888"/></linearGradient><clipPath id="SvgjsClipPath3712"><rect width="926" height="428"/></clipPath></defs></svg>